<?xml version="1.0" encoding="UTF-8"?>
<svg xmlns="http://www.w3.org/2000/svg" viewBox="0 0 512 512">
	<g id="Layer_1" data-name="Layer 1">
		<rect width="512" height="512" style="fill: #4a69bd;"/>
	</g>
	<g id="Layer_2" data-name="Layer 2">
		<circle cx="256" cy="310.94" r="191.87" style="fill: #d77519;"/>
		<circle cx="251.94" cy="315.71" r="187.1" style="fill: #f7931e;"/>
		<path d="m248.67,106.27l21.84-41.32c10.94-20.69,29.17-36.58,51.17-44.59l29.97-10.91c2.83-1.03,5.83,1.07,5.83,4.08v10.51c0,40.14-29.64,74.12-69.42,79.56l-37.66,5.15c-1.37.19-2.38-1.25-1.73-2.48Z" style="fill: #39b54a;"/>
		<g>
			<g id="_Radial_Repeat_" data-name="&amp;lt;Radial Repeat&amp;gt;">
				<path d="m286.06,479.6l-5.27,1.9c-18.86,6.81-39.06,6.79-57.92-.04l-5.07-1.84c-11.23-4.07-16.93-18.52-12.25-31.02l40.19-107.27c2.35-6.28,10.04-6.28,12.4,0l40.18,107.24c4.69,12.51-1.03,26.97-12.27,31.03Z" style="fill: #fbbe2f;"/>
			</g>
			<g id="_Radial_Repeat_-2" data-name="&amp;lt;Radial Repeat&amp;gt;">
				<path d="m160.18,455.72l-5.07-2.38c-18.15-8.52-32.42-22.82-40.92-40.98l-2.29-4.88c-5.06-10.81,1.12-25.06,13.28-30.59l104.27-47.43c6.11-2.78,11.55,2.66,8.77,8.77l-47.42,104.24c-5.53,12.16-19.8,18.34-30.62,13.27Z" style="fill: #fbbe2f;"/>
			</g>
			<g id="_Radial_Repeat_-3" data-name="&amp;lt;Radial Repeat&amp;gt;">
				<path d="m88.05,349.82l-1.9-5.27c-6.81-18.86-6.79-39.06.04-57.92l1.84-5.07c4.07-11.23,18.52-16.93,31.02-12.25l107.27,40.19c6.28,2.35,6.28,10.04,0,12.4l-107.24,40.18c-12.51,4.69-26.97-1.03-31.03-12.27Z" style="fill: #fbbe2f;"/>
			</g>
			<g id="_Radial_Repeat_-4" data-name="&amp;lt;Radial Repeat&amp;gt;">
				<path d="m111.93,223.94l2.38-5.07c8.52-18.15,22.82-32.42,40.98-40.92l4.88-2.29c10.81-5.06,25.06,1.12,30.59,13.28l47.43,104.27c2.78,6.11-2.66,11.55-8.77,8.77l-104.24-47.42c-12.16-5.53-18.34-19.8-13.27-30.62Z" style="fill: #fbbe2f;"/>
			</g>
			<g id="_Radial_Repeat_-5" data-name="&amp;lt;Radial Repeat&amp;gt;">
				<path d="m217.83,151.82l5.27-1.9c18.86-6.81,39.06-6.79,57.92.04l5.07,1.84c11.23,4.07,16.93,18.52,12.25,31.02l-40.19,107.27c-2.35,6.28-10.04,6.28-12.4,0l-40.18-107.24c-4.69-12.51,1.03-26.97,12.27-31.03Z" style="fill: #fbbe2f;"/>
			</g>
			<g id="_Radial_Repeat_-6" data-name="&amp;lt;Radial Repeat&amp;gt;">
				<path d="m343.71,175.7l5.07,2.38c18.15,8.52,32.42,22.82,40.92,40.98l2.29,4.88c5.06,10.81-1.12,25.06-13.28,30.59l-104.27,47.43c-6.11,2.78-11.55-2.66-8.77-8.77l47.42-104.24c5.53-12.16,19.8-18.34,30.62-13.27Z" style="fill: #fbbe2f;"/>
			</g>
			<g id="_Radial_Repeat_-7" data-name="&amp;lt;Radial Repeat&amp;gt;">
				<path d="m415.83,281.59l1.9,5.27c6.81,18.86,6.79,39.06-.04,57.92l-1.84,5.07c-4.07,11.23-18.52,16.93-31.02,12.25l-107.27-40.19c-6.28-2.35-6.28-10.04,0-12.4l107.24-40.18c12.51-4.69,26.97,1.03,31.03,12.27Z" style="fill: #fbbe2f;"/>
			</g>
			<g id="_Radial_Repeat_-8" data-name="&amp;lt;Radial Repeat&amp;gt;">
				<path d="m391.95,407.47l-2.38,5.07c-8.52,18.15-22.82,32.42-40.98,40.92l-4.88,2.29c-10.81,5.06-25.06-1.12-30.59-13.28l-47.43-104.27c-2.78-6.11,2.66-11.55,8.77-8.77l104.24,47.42c12.16,5.53,18.34,19.8,13.27,30.62Z" style="fill: #fbbe2f;"/>
			</g>
		</g>
	</g>
</svg>